<mxfile host="65bd71144e">
    <diagram id="hH_x33PKSidoJaO71UuB" name="Page-1">
        <mxGraphModel dx="1408" dy="858" grid="1" gridSize="10" guides="1" tooltips="1" connect="1" arrows="1" fold="1" page="1" pageScale="1" pageWidth="850" pageHeight="1100" background="#ffffff" math="0" shadow="0">
            <root>
                <mxCell id="0"/>
                <mxCell id="1" parent="0"/>
                <mxCell id="3" value="" style="swimlane;startSize=0;" vertex="1" parent="1">
                    <mxGeometry x="40" y="290" width="840" height="100" as="geometry"/>
                </mxCell>
                <mxCell id="4" value="" style="swimlane;startSize=0;" vertex="1" parent="3">
                    <mxGeometry x="360" y="10" width="450" height="70" as="geometry"/>
                </mxCell>
                <mxCell id="5" value="http data" style="rounded=1;whiteSpace=wrap;html=1;fillColor=#f8cecc;strokeColor=#b85450;" vertex="1" parent="4">
                    <mxGeometry x="310" y="5" width="120" height="60" as="geometry"/>
                </mxCell>
                <mxCell id="6" value="tcp data" style="rounded=1;whiteSpace=wrap;html=1;fillColor=#f8cecc;strokeColor=#b85450;" vertex="1" parent="4">
                    <mxGeometry x="190" y="5" width="120" height="60" as="geometry"/>
                </mxCell>
                <mxCell id="8" value="network data" style="rounded=1;whiteSpace=wrap;html=1;fillColor=#f8cecc;strokeColor=#b85450;" vertex="1" parent="4">
                    <mxGeometry x="70" y="5" width="120" height="60" as="geometry"/>
                </mxCell>
                <mxCell id="11" value="pod" style="text;html=1;align=center;verticalAlign=middle;resizable=0;points=[];autosize=1;strokeColor=none;fillColor=none;" vertex="1" parent="4">
                    <mxGeometry x="15" y="20" width="40" height="30" as="geometry"/>
                </mxCell>
                <mxCell id="10" value="network data" style="rounded=1;whiteSpace=wrap;html=1;fillColor=#d5e8d4;strokeColor=#82b366;" vertex="1" parent="3">
                    <mxGeometry x="190" y="10" width="170" height="70" as="geometry"/>
                </mxCell>
                <mxCell id="15" value="data-link data" style="rounded=1;whiteSpace=wrap;html=1;fillColor=#d5e8d4;strokeColor=#82b366;" vertex="1" parent="3">
                    <mxGeometry x="30" y="10" width="160" height="70" as="geometry"/>
                </mxCell>
                <mxCell id="12" value="其中 ip 是pod ip" style="text;html=1;strokeColor=none;fillColor=none;align=center;verticalAlign=middle;whiteSpace=wrap;rounded=0;" vertex="1" parent="1">
                    <mxGeometry x="460" y="220" width="210" height="30" as="geometry"/>
                </mxCell>
                <mxCell id="13" style="edgeStyle=none;html=1;dashed=1;" edge="1" parent="1" source="8" target="12">
                    <mxGeometry relative="1" as="geometry"/>
                </mxCell>
                <mxCell id="14" value="ip 隧道（tunl0）接管 源ip 是本机 ip&lt;br&gt;目标ip 是对面主机的 ip" style="text;html=1;strokeColor=none;fillColor=none;align=center;verticalAlign=middle;whiteSpace=wrap;rounded=0;" vertex="1" parent="1">
                    <mxGeometry x="170" y="240" width="240" height="40" as="geometry"/>
                </mxCell>
            </root>
        </mxGraphModel>
    </diagram>
</mxfile>